<?xml version="1.0" encoding="utf-8" standalone="no"?>
<!DOCTYPE svg PUBLIC "-//W3C//DTD SVG 1.1//EN"
  "http://www.w3.org/Graphics/SVG/1.1/DTD/svg11.dtd">
<svg xmlns:xlink="http://www.w3.org/1999/xlink" width="652.26146pt" height="320.4pt" viewBox="0 0 652.26146 320.4" xmlns="http://www.w3.org/2000/svg" version="1.1">
 <metadata>
  <rdf:RDF xmlns:dc="http://purl.org/dc/elements/1.1/" xmlns:cc="http://creativecommons.org/ns#" xmlns:rdf="http://www.w3.org/1999/02/22-rdf-syntax-ns#">
   <cc:Work>
    <dc:type rdf:resource="http://purl.org/dc/dcmitype/StillImage"/>
    <dc:date>2026-01-22T09:58:10.320581</dc:date>
    <dc:format>image/svg+xml</dc:format>
    <dc:creator>
     <cc:Agent>
      <dc:title>Matplotlib v3.9.2, https://matplotlib.org/</dc:title>
     </cc:Agent>
    </dc:creator>
   </cc:Work>
  </rdf:RDF>
 </metadata>
 <defs>
  <style type="text/css">*{stroke-linejoin: round; stroke-linecap: butt}</style>
 </defs>
 <g id="figure_1">
  <g id="patch_1">
   <path d="M 0 320.4 
L 652.26146 320.4 
L 652.26146 0 
L 0 0 
z
" style="fill: #ffffff"/>
  </g>
  <g id="axes_1">
   <g id="text_1">
    <text style="fill: #2c3e50; font: 700 13px 'CMU Serif', 'Computer Modern Roman', 'Times New Roman', 'DejaVu Serif', serif; text-anchor: middle" x="150.6375" y="33.106719" transform="rotate(-0 150.6375 33.106719)">Joint HMM</text>
   </g>
   <g id="text_2">
    <text style="fill: #2c3e50; font: 700 11px 'DejaVu Sans Mono'; text-anchor: middle" x="86.090625" y="300.935312" transform="rotate(-0 86.090625 300.935312)">.</text>
   </g>
   <g id="text_3">
    <text style="fill: #2c3e50; font: 700 11px 'DejaVu Sans Mono'; text-anchor: middle" x="94.696875" y="300.935312" transform="rotate(-0 94.696875 300.935312)">.</text>
   </g>
   <g id="text_4">
    <text style="fill: #2c3e50; font: 700 11px 'DejaVu Sans Mono'; text-anchor: middle" x="103.303125" y="300.935312" transform="rotate(-0 103.303125 300.935312)">.</text>
   </g>
   <g id="text_5">
    <text style="fill: #2c3e50; font: 700 11px 'DejaVu Sans Mono'; text-anchor: middle" x="111.909375" y="300.935312" transform="rotate(-0 111.909375 300.935312)">C</text>
   </g>
   <g id="text_6">
    <text style="fill: #2c3e50; font: 700 11px 'DejaVu Sans Mono'; text-anchor: middle" x="120.515625" y="300.935312" transform="rotate(-0 120.515625 300.935312)">D</text>
   </g>
   <g id="text_7">
    <text style="fill: #2c3e50; font: 700 11px 'DejaVu Sans Mono'; text-anchor: middle" x="129.121875" y="300.935312" transform="rotate(-0 129.121875 300.935312)">B</text>
   </g>
   <g id="text_8">
    <text style="fill: #2c3e50; font: 700 11px 'DejaVu Sans Mono'; text-anchor: middle" x="137.728125" y="300.935312" transform="rotate(-0 137.728125 300.935312)">D</text>
   </g>
   <g id="text_9">
    <text style="fill: #2c3e50; font: 700 11px 'DejaVu Sans Mono'; text-anchor: middle" x="146.334375" y="300.935312" transform="rotate(-0 146.334375 300.935312)">D</text>
   </g>
   <g id="text_10">
    <text style="fill: #2c3e50; font: 700 11px 'DejaVu Sans Mono'; text-anchor: middle" x="154.940625" y="300.935312" transform="rotate(-0 154.940625 300.935312)">B</text>
   </g>
   <g id="text_11">
    <text style="fill: #2c3e50; font: 700 11px 'DejaVu Sans Mono'; text-anchor: middle" x="163.546875" y="300.935312" transform="rotate(-0 163.546875 300.935312)">D</text>
   </g>
   <g id="text_12">
    <text style="fill: #2c3e50; font: 700 11px 'DejaVu Sans Mono'; text-anchor: middle" x="172.153125" y="300.935312" transform="rotate(-0 172.153125 300.935312)">D</text>
   </g>
   <g id="text_13">
    <text style="fill: #2c3e50; font: 700 11px 'DejaVu Sans Mono'; text-anchor: middle" x="180.759375" y="300.935312" transform="rotate(-0 180.759375 300.935312)">C</text>
   </g>
   <g id="text_14">
    <text style="fill: #2c3e50; font: 700 11px 'DejaVu Sans Mono'; text-anchor: middle" x="189.365625" y="300.935312" transform="rotate(-0 189.365625 300.935312)">D</text>
   </g>
   <g id="text_15">
    <text style="fill: #2c3e50; font: 700 11px 'DejaVu Sans Mono'; text-anchor: middle" x="197.971875" y="300.935312" transform="rotate(-0 197.971875 300.935312)">.</text>
   </g>
   <g id="text_16">
    <text style="fill: #2c3e50; font: 700 11px 'DejaVu Sans Mono'; text-anchor: middle" x="206.578125" y="300.935312" transform="rotate(-0 206.578125 300.935312)">.</text>
   </g>
   <g id="text_17">
    <text style="fill: #2c3e50; font: 700 11px 'DejaVu Sans Mono'; text-anchor: middle" x="215.184375" y="300.935312" transform="rotate(-0 215.184375 300.935312)">.</text>
   </g>
   <g id="patch_2">
    <path d="M 90.100888 235.505395 
C 77.929812 272.018621 38.818879 232.907688 75.332105 220.736612 
" clip-path="url(#p51ef84a662)" style="fill: none; stroke: #898989; stroke-width: 1.514; stroke-linejoin: miter"/>
   </g>
   <g id="patch_3">
    <path d="M 225.942895 220.736612 
C 262.456121 232.907688 223.345188 272.018621 211.174112 235.505395 
" clip-path="url(#p51ef84a662)" style="fill: none; stroke: #898989; stroke-width: 1.514; stroke-linejoin: miter"/>
   </g>
   <g id="patch_4">
    <path d="M 75.332105 99.663388 
C 38.818879 87.492312 77.929812 48.381379 90.100888 84.894605 
" clip-path="url(#p51ef84a662)" style="fill: none; stroke: #858585; stroke-width: 1.5735; stroke-linejoin: miter"/>
   </g>
   <g id="patch_5">
    <path d="M 211.174112 84.894605 
C 223.345188 48.381379 262.456121 87.492312 225.942895 99.663388 
" clip-path="url(#p51ef84a662)" style="fill: none; stroke: #858585; stroke-width: 1.5735; stroke-linejoin: miter"/>
   </g>
   <g id="patch_6">
    <path d="M 109.51875 224.0775 
Q 150.6375 238.88025 191.75625 224.0775 
" clip-path="url(#p51ef84a662)" style="fill: none; stroke: #a8a8a8; stroke-width: 1.106; stroke-linejoin: miter"/>
   </g>
   <g id="patch_7">
    <path d="M 191.75625 211.0725 
Q 150.6375 225.87525 109.51875 211.0725 
" clip-path="url(#p51ef84a662)" style="fill: none; stroke: #a8a8a8; stroke-width: 1.106; stroke-linejoin: miter"/>
   </g>
   <g id="patch_8">
    <path d="M 109.51875 96.3225 
Q 150.6375 81.51975 191.75625 96.3225 
" clip-path="url(#p51ef84a662)" style="fill: none; stroke: #a6a6a6; stroke-width: 1.1315; stroke-linejoin: miter"/>
   </g>
   <g id="patch_9">
    <path d="M 191.75625 109.3275 
Q 150.6375 94.52475 109.51875 109.3275 
" clip-path="url(#p51ef84a662)" style="fill: none; stroke: #a6a6a6; stroke-width: 1.1315; stroke-linejoin: miter"/>
   </g>
   <g id="patch_10">
    <path d="M 86.76 201.31875 
Q 71.95725 160.2 86.76 119.08125 
" clip-path="url(#p51ef84a662)" style="fill: none; stroke: #9b9b9b; stroke-width: 1.276; stroke-linejoin: miter"/>
   </g>
   <g id="patch_11">
    <path d="M 99.765 119.08125 
Q 84.96225 160.2 99.765 201.31875 
" clip-path="url(#p51ef84a662)" style="fill: none; stroke: #a0a0a0; stroke-width: 1.2165; stroke-linejoin: miter"/>
   </g>
   <g id="patch_12">
    <path d="M 214.515 201.31875 
Q 229.31775 160.2 214.515 119.08125 
" clip-path="url(#p51ef84a662)" style="fill: none; stroke: #9b9b9b; stroke-width: 1.276; stroke-linejoin: miter"/>
   </g>
   <g id="patch_13">
    <path d="M 201.51 119.08125 
Q 216.31275 160.2 201.51 201.31875 
" clip-path="url(#p51ef84a662)" style="fill: none; stroke: #a0a0a0; stroke-width: 1.2165; stroke-linejoin: miter"/>
   </g>
   <g id="patch_14">
    <path d="M 106.138406 197.938406 
Q 163.704656 173.267156 188.375906 115.700906 
" clip-path="url(#p51ef84a662)" style="fill: none; stroke: #afafaf; stroke-width: 1.004; stroke-linejoin: miter"/>
   </g>
   <g id="patch_15">
    <path d="M 195.136594 122.461594 
Q 170.465344 180.027844 112.899094 204.699094 
" clip-path="url(#p51ef84a662)" style="fill: none; stroke: #b1b1b1; stroke-width: 0.9785; stroke-linejoin: miter"/>
   </g>
   <g id="patch_16">
    <path d="M 112.899094 115.700906 
Q 137.570344 173.267156 195.136594 197.938406 
" clip-path="url(#p51ef84a662)" style="fill: none; stroke: #b1b1b1; stroke-width: 0.9785; stroke-linejoin: miter"/>
   </g>
   <g id="patch_17">
    <path d="M 188.375906 204.699094 
Q 130.809656 180.027844 106.138406 122.461594 
" clip-path="url(#p51ef84a662)" style="fill: none; stroke: #afafaf; stroke-width: 1.004; stroke-linejoin: miter"/>
   </g>
   <g id="patch_18">
    <path d="M 75.332105 220.736612 
L 68.679464 218.922256 
L 71.098606 226.179683 
z
" clip-path="url(#p51ef84a662)" style="fill: #898989; stroke: #898989; stroke-linejoin: miter"/>
   </g>
   <g id="patch_19">
    <path d="M 211.174112 235.505395 
L 209.359756 242.158036 
L 216.617183 239.738894 
z
" clip-path="url(#p51ef84a662)" style="fill: #898989; stroke: #898989; stroke-linejoin: miter"/>
   </g>
   <g id="patch_20">
    <path d="M 90.100888 84.894605 
L 91.915244 78.241964 
L 84.657817 80.661106 
z
" clip-path="url(#p51ef84a662)" style="fill: #858585; stroke: #858585; stroke-linejoin: miter"/>
   </g>
   <g id="patch_21">
    <path d="M 225.942895 99.663388 
L 232.595536 101.477744 
L 230.176394 94.220317 
z
" clip-path="url(#p51ef84a662)" style="fill: #858585; stroke: #858585; stroke-linejoin: miter"/>
   </g>
   <g id="patch_22">
    <path d="M 191.75625 224.0775 
L 185.062307 222.422009 
L 187.65351 229.619797 
z
" clip-path="url(#p51ef84a662)" style="fill: #a8a8a8; stroke: #a8a8a8; stroke-linejoin: miter"/>
   </g>
   <g id="patch_23">
    <path d="M 109.51875 211.0725 
L 113.62149 216.614797 
L 116.212693 209.417009 
z
" clip-path="url(#p51ef84a662)" style="fill: #a8a8a8; stroke: #a8a8a8; stroke-linejoin: miter"/>
   </g>
   <g id="patch_24">
    <path d="M 191.75625 96.3225 
L 187.65351 90.780203 
L 185.062307 97.977991 
z
" clip-path="url(#p51ef84a662)" style="fill: #a6a6a6; stroke: #a6a6a6; stroke-linejoin: miter"/>
   </g>
   <g id="patch_25">
    <path d="M 109.51875 109.3275 
L 116.212693 110.982991 
L 113.62149 103.785203 
z
" clip-path="url(#p51ef84a662)" style="fill: #a6a6a6; stroke: #a6a6a6; stroke-linejoin: miter"/>
   </g>
   <g id="patch_26">
    <path d="M 86.76 119.08125 
L 81.217703 123.18399 
L 88.415491 125.775193 
z
" clip-path="url(#p51ef84a662)" style="fill: #9b9b9b; stroke: #9b9b9b; stroke-linejoin: miter"/>
   </g>
   <g id="patch_27">
    <path d="M 99.765 201.31875 
L 101.420491 194.624807 
L 94.222703 197.21601 
z
" clip-path="url(#p51ef84a662)" style="fill: #a0a0a0; stroke: #a0a0a0; stroke-linejoin: miter"/>
   </g>
   <g id="patch_28">
    <path d="M 214.515 119.08125 
L 212.859509 125.775193 
L 220.057297 123.18399 
z
" clip-path="url(#p51ef84a662)" style="fill: #9b9b9b; stroke: #9b9b9b; stroke-linejoin: miter"/>
   </g>
   <g id="patch_29">
    <path d="M 201.51 201.31875 
L 207.052297 197.21601 
L 199.854509 194.624807 
z
" clip-path="url(#p51ef84a662)" style="fill: #a0a0a0; stroke: #a0a0a0; stroke-linejoin: miter"/>
   </g>
   <g id="patch_30">
    <path d="M 188.375906 115.700906 
L 182.600065 119.46776 
L 189.631524 122.481242 
z
" clip-path="url(#p51ef84a662)" style="fill: #afafaf; stroke: #afafaf; stroke-linejoin: miter"/>
   </g>
   <g id="patch_31">
    <path d="M 112.899094 204.699094 
L 119.67943 205.954712 
L 116.665947 198.923252 
z
" clip-path="url(#p51ef84a662)" style="fill: #b1b1b1; stroke: #b1b1b1; stroke-linejoin: miter"/>
   </g>
   <g id="patch_32">
    <path d="M 195.136594 197.938406 
L 191.36974 192.162565 
L 188.356258 199.194024 
z
" clip-path="url(#p51ef84a662)" style="fill: #b1b1b1; stroke: #b1b1b1; stroke-linejoin: miter"/>
   </g>
   <g id="patch_33">
    <path d="M 106.138406 122.461594 
L 104.882788 129.24193 
L 111.914248 126.228447 
z
" clip-path="url(#p51ef84a662)" style="fill: #afafaf; stroke: #afafaf; stroke-linejoin: miter"/>
   </g>
   <g id="patch_34">
    <path d="M 93.2625 233.83125 
C 97.573708 233.83125 101.70892 232.118389 104.757405 229.069905 
C 107.805889 226.02142 109.51875 221.886208 109.51875 217.575 
C 109.51875 213.263792 107.805889 209.12858 104.757405 206.080095 
C 101.70892 203.031611 97.573708 201.31875 93.2625 201.31875 
C 88.951292 201.31875 84.81608 203.031611 81.767595 206.080095 
C 78.719111 209.12858 77.00625 213.263792 77.00625 217.575 
C 77.00625 221.886208 78.719111 226.02142 81.767595 229.069905 
C 84.81608 232.118389 88.951292 233.83125 93.2625 233.83125 
z
" clip-path="url(#p51ef84a662)" style="fill: #7a98a3"/>
   </g>
   <g id="patch_35">
    <path d="M 208.0125 233.83125 
C 212.323708 233.83125 216.45892 232.118389 219.507405 229.069905 
C 222.555889 226.02142 224.26875 221.886208 224.26875 217.575 
C 224.26875 213.263792 222.555889 209.12858 219.507405 206.080095 
C 216.45892 203.031611 212.323708 201.31875 208.0125 201.31875 
C 203.701292 201.31875 199.56608 203.031611 196.517595 206.080095 
C 193.469111 209.12858 191.75625 213.263792 191.75625 217.575 
C 191.75625 221.886208 193.469111 226.02142 196.517595 229.069905 
C 199.56608 232.118389 203.701292 233.83125 208.0125 233.83125 
z
" clip-path="url(#p51ef84a662)" style="fill: #7a98a3"/>
   </g>
   <g id="patch_36">
    <path d="M 93.2625 119.08125 
C 97.573708 119.08125 101.70892 117.368389 104.757405 114.319905 
C 107.805889 111.27142 109.51875 107.136208 109.51875 102.825 
C 109.51875 98.513792 107.805889 94.37858 104.757405 91.330095 
C 101.70892 88.281611 97.573708 86.56875 93.2625 86.56875 
C 88.951292 86.56875 84.81608 88.281611 81.767595 91.330095 
C 78.719111 94.37858 77.00625 98.513792 77.00625 102.825 
C 77.00625 107.136208 78.719111 111.27142 81.767595 114.319905 
C 84.81608 117.368389 88.951292 119.08125 93.2625 119.08125 
z
" clip-path="url(#p51ef84a662)" style="fill: #7a98a3"/>
   </g>
   <g id="patch_37">
    <path d="M 208.0125 119.08125 
C 212.323708 119.08125 216.45892 117.368389 219.507405 114.319905 
C 222.555889 111.27142 224.26875 107.136208 224.26875 102.825 
C 224.26875 98.513792 222.555889 94.37858 219.507405 91.330095 
C 216.45892 88.281611 212.323708 86.56875 208.0125 86.56875 
C 203.701292 86.56875 199.56608 88.281611 196.517595 91.330095 
C 193.469111 94.37858 191.75625 98.513792 191.75625 102.825 
C 191.75625 107.136208 193.469111 111.27142 196.517595 114.319905 
C 199.56608 117.368389 203.701292 119.08125 208.0125 119.08125 
z
" clip-path="url(#p51ef84a662)" style="fill: #7a98a3"/>
   </g>
   <g id="text_18">
    <!-- $\mathbf{S}_{\alpha}$ -->
    <g style="fill: #ffffff" transform="translate(87.7075 220.217578)">
     <text>
      <tspan style="font: 700 11px 'STIXGeneral'" x="0" y="-0.390625">S</tspan>
      <tspan style="font: italic 7.7px 'STIXGeneral'" x="6.285529" y="1.0625">α</tspan>
     </text>
    </g>
   </g>
   <g id="text_19">
    <!-- $\mathbf{S}_{\gamma}$ -->
    <g style="fill: #ffffff" transform="translate(203.0075 219.885)">
     <text>
      <tspan style="font: 700 11px 'STIXGeneral'" x="0" y="-0.390625">S</tspan>
      <tspan style="font: italic 7.7px 'STIXGeneral'" x="6.285529" y="1.0625">γ</tspan>
     </text>
    </g>
   </g>
   <g id="text_20">
    <!-- $\mathbf{S}_{\beta}$ -->
    <g style="fill: #ffffff" transform="translate(87.9275 105.135)">
     <text>
      <tspan style="font: 700 11px 'STIXGeneral'" x="0" y="-0.390625">S</tspan>
      <tspan style="font: italic 7.7px 'STIXGeneral'" x="6.285529" y="1.0625">β</tspan>
     </text>
    </g>
   </g>
   <g id="text_21">
    <!-- $\mathbf{S}_{\delta}$ -->
    <g style="fill: #ffffff" transform="translate(202.8425 105.467578)">
     <text>
      <tspan style="font: 700 11px 'STIXGeneral'" x="0" y="-0.390625">S</tspan>
      <tspan style="font: italic 7.7px 'STIXGeneral'" x="6.285529" y="1.0625">δ</tspan>
     </text>
    </g>
   </g>
   <g id="text_22">
    <g id="patch_38">
     <path d="M 47.798094 265.430812 
L 55.098094 265.430812 
Q 56.598094 265.430812 56.598094 263.930812 
L 56.598094 254.848 
Q 56.598094 253.348 55.098094 253.348 
L 47.798094 253.348 
Q 46.298094 253.348 46.298094 254.848 
L 46.298094 263.930812 
Q 46.298094 265.430812 47.798094 265.430812 
z
" style="fill: #ffffff"/>
    </g>
    <!-- $\mathbf{D}$ -->
    <g style="fill: #2c3e50" transform="translate(47.798094 261.79175)">
     <text>
      <tspan style="font: 700 10px 'STIXGeneral'" x="0" y="-0.234375">D</tspan>
     </text>
    </g>
   </g>
   <g id="text_23">
    <g id="patch_39">
     <path d="M 246.176906 265.430812 
L 253.476906 265.430812 
Q 254.976906 265.430812 254.976906 263.930812 
L 254.976906 254.848 
Q 254.976906 253.348 253.476906 253.348 
L 246.176906 253.348 
Q 244.676906 253.348 244.676906 254.848 
L 244.676906 263.930812 
Q 244.676906 265.430812 246.176906 265.430812 
z
" style="fill: #ffffff"/>
    </g>
    <!-- $\mathbf{D}$ -->
    <g style="fill: #2c3e50" transform="translate(246.176906 261.79175)">
     <text>
      <tspan style="font: 700 10px 'STIXGeneral'" x="0" y="-0.234375">D</tspan>
     </text>
    </g>
   </g>
   <g id="text_24">
    <g id="patch_40">
     <path d="M 49.177483 68.431389 
L 56.477483 68.431389 
Q 57.977483 68.431389 57.977483 66.931389 
L 57.977483 57.848576 
Q 57.977483 56.348576 56.477483 56.348576 
L 49.177483 56.348576 
Q 47.677483 56.348576 47.677483 57.848576 
L 47.677483 66.931389 
Q 47.677483 68.431389 49.177483 68.431389 
z
" style="fill: #ffffff"/>
    </g>
    <!-- $\mathbf{D}$ -->
    <g style="fill: #2c3e50" transform="translate(49.177483 64.792326)">
     <text>
      <tspan style="font: 700 10px 'STIXGeneral'" x="0" y="-0.234375">D</tspan>
     </text>
    </g>
   </g>
   <g id="text_25">
    <g id="patch_41">
     <path d="M 244.797517 68.431389 
L 252.097517 68.431389 
Q 253.597517 68.431389 253.597517 66.931389 
L 253.597517 57.848576 
Q 253.597517 56.348576 252.097517 56.348576 
L 244.797517 56.348576 
Q 243.297517 56.348576 243.297517 57.848576 
L 243.297517 66.931389 
Q 243.297517 68.431389 244.797517 68.431389 
z
" style="fill: #ffffff"/>
    </g>
    <!-- $\mathbf{D}$ -->
    <g style="fill: #2c3e50" transform="translate(244.797517 64.792326)">
     <text>
      <tspan style="font: 700 10px 'STIXGeneral'" x="0" y="-0.234375">D</tspan>
     </text>
    </g>
   </g>
   <g id="text_26">
    <g id="patch_42">
     <path d="M 146.9875 237.520281 
L 154.2875 237.520281 
Q 155.7875 237.520281 155.7875 236.020281 
L 155.7875 226.937469 
Q 155.7875 225.437469 154.2875 225.437469 
L 146.9875 225.437469 
Q 145.4875 225.437469 145.4875 226.937469 
L 145.4875 236.020281 
Q 145.4875 237.520281 146.9875 237.520281 
z
" style="fill: #ffffff"/>
    </g>
    <!-- $\mathbf{D}$ -->
    <g style="fill: #2c3e50" transform="translate(146.9875 233.881219)">
     <text>
      <tspan style="font: 700 10px 'STIXGeneral'" x="0" y="-0.234375">D</tspan>
     </text>
    </g>
   </g>
   <g id="text_27">
    <g id="patch_43">
     <path d="M 147.2875 224.515281 
L 153.9875 224.515281 
Q 155.4875 224.515281 155.4875 223.015281 
L 155.4875 213.932469 
Q 155.4875 212.432469 153.9875 212.432469 
L 147.2875 212.432469 
Q 145.7875 212.432469 145.7875 213.932469 
L 145.7875 223.015281 
Q 145.7875 224.515281 147.2875 224.515281 
z
" style="fill: #ffffff"/>
    </g>
    <!-- $\mathbf{B}$ -->
    <g style="fill: #2c3e50" transform="translate(147.2875 220.876219)">
     <text>
      <tspan style="font: 700 10px 'STIXGeneral'" x="0" y="-0.234375">B</tspan>
     </text>
    </g>
   </g>
   <g id="text_28">
    <g id="patch_44">
     <path d="M 146.9875 94.962531 
L 154.2875 94.962531 
Q 155.7875 94.962531 155.7875 93.462531 
L 155.7875 84.379719 
Q 155.7875 82.879719 154.2875 82.879719 
L 146.9875 82.879719 
Q 145.4875 82.879719 145.4875 84.379719 
L 145.4875 93.462531 
Q 145.4875 94.962531 146.9875 94.962531 
z
" style="fill: #ffffff"/>
    </g>
    <!-- $\mathbf{D}$ -->
    <g style="fill: #2c3e50" transform="translate(146.9875 91.323469)">
     <text>
      <tspan style="font: 700 10px 'STIXGeneral'" x="0" y="-0.234375">D</tspan>
     </text>
    </g>
   </g>
   <g id="text_29">
    <g id="patch_45">
     <path d="M 147.2875 107.967531 
L 153.9875 107.967531 
Q 155.4875 107.967531 155.4875 106.467531 
L 155.4875 97.384719 
Q 155.4875 95.884719 153.9875 95.884719 
L 147.2875 95.884719 
Q 145.7875 95.884719 145.7875 97.384719 
L 145.7875 106.467531 
Q 145.7875 107.967531 147.2875 107.967531 
z
" style="fill: #ffffff"/>
    </g>
    <!-- $\mathbf{B}$ -->
    <g style="fill: #2c3e50" transform="translate(147.2875 104.328469)">
     <text>
      <tspan style="font: 700 10px 'STIXGeneral'" x="0" y="-0.234375">B</tspan>
     </text>
    </g>
   </g>
   <g id="text_30">
    <g id="patch_46">
     <path d="M 85.400031 163.85 
L 85.400031 156.55 
Q 85.400031 155.05 83.900031 155.05 
L 74.817219 155.05 
Q 73.317219 155.05 73.317219 156.55 
L 73.317219 163.85 
Q 73.317219 165.35 74.817219 165.35 
L 83.900031 165.35 
Q 85.400031 165.35 85.400031 163.85 
z
" style="fill: #ffffff"/>
    </g>
    <!-- $\mathbf{D}$ -->
    <g style="fill: #2c3e50" transform="translate(81.760969 163.85) rotate(-90)">
     <text>
      <tspan style="font: 700 10px 'STIXGeneral'" x="0" y="-0.234375">D</tspan>
     </text>
    </g>
   </g>
   <g id="text_31">
    <g id="patch_47">
     <path d="M 98.405031 163.85 
L 98.405031 156.55 
Q 98.405031 155.05 96.905031 155.05 
L 87.822219 155.05 
Q 86.322219 155.05 86.322219 156.55 
L 86.322219 163.85 
Q 86.322219 165.35 87.822219 165.35 
L 96.905031 165.35 
Q 98.405031 165.35 98.405031 163.85 
z
" style="fill: #ffffff"/>
    </g>
    <!-- $\mathbf{C}$ -->
    <g style="fill: #2c3e50" transform="translate(94.765969 163.85) rotate(-90)">
     <text>
      <tspan style="font: 700 10px 'STIXGeneral'" x="0" y="-0.09375">C</tspan>
     </text>
    </g>
   </g>
   <g id="text_32">
    <g id="patch_48">
     <path d="M 227.957781 163.85 
L 227.957781 156.55 
Q 227.957781 155.05 226.457781 155.05 
L 217.374969 155.05 
Q 215.874969 155.05 215.874969 156.55 
L 215.874969 163.85 
Q 215.874969 165.35 217.374969 165.35 
L 226.457781 165.35 
Q 227.957781 165.35 227.957781 163.85 
z
" style="fill: #ffffff"/>
    </g>
    <!-- $\mathbf{D}$ -->
    <g style="fill: #2c3e50" transform="translate(224.318719 163.85) rotate(-90)">
     <text>
      <tspan style="font: 700 10px 'STIXGeneral'" x="0" y="-0.234375">D</tspan>
     </text>
    </g>
   </g>
   <g id="text_33">
    <g id="patch_49">
     <path d="M 214.952781 163.85 
L 214.952781 156.55 
Q 214.952781 155.05 213.452781 155.05 
L 204.369969 155.05 
Q 202.869969 155.05 202.869969 156.55 
L 202.869969 163.85 
Q 202.869969 165.35 204.369969 165.35 
L 213.452781 165.35 
Q 214.952781 165.35 214.952781 163.85 
z
" style="fill: #ffffff"/>
    </g>
    <!-- $\mathbf{C}$ -->
    <g style="fill: #2c3e50" transform="translate(211.313719 163.85) rotate(-90)">
     <text>
      <tspan style="font: 700 10px 'STIXGeneral'" x="0" y="-0.09375">C</tspan>
     </text>
    </g>
   </g>
   <g id="text_34">
    <g id="patch_50">
     <path d="M 138.245956 186.505661 
L 143.567276 182.652292 
Q 144.660698 181.860504 143.868909 180.767082 
L 139.074467 174.146185 
Q 138.282678 173.052763 137.189256 173.844551 
L 131.867937 177.697921 
Q 130.774515 178.489709 131.566303 179.583131 
L 136.360746 186.204028 
Q 137.152534 187.29745 138.245956 186.505661 
z
" style="fill: #ffffff"/>
    </g>
    <!-- $\mathbf{D}$ -->
    <g style="fill: #2c3e50" transform="translate(136.325045 183.852974) rotate(-35.909723)">
     <text>
      <tspan style="font: 700 9px 'STIXGeneral'" x="0" y="-0.921875">D</tspan>
     </text>
    </g>
   </g>
   <g id="text_35">
    <g id="patch_51">
     <path d="M 179.850479 159.890463 
L 183.703849 154.569144 
Q 184.495637 153.475722 183.402215 152.683933 
L 176.781318 147.889491 
Q 175.687896 147.097702 174.896108 148.191124 
L 171.042739 153.512444 
Q 170.25095 154.605866 171.344372 155.397654 
L 177.965269 160.192097 
Q 179.058691 160.983885 179.850479 159.890463 
z
" style="fill: #ffffff"/>
    </g>
    <!-- $\mathbf{A}$ -->
    <g style="fill: #2c3e50" transform="translate(177.197792 157.969552) rotate(-54.090277)">
     <text>
      <tspan style="font: 700 9px 'STIXGeneral'" x="0" y="-0.796875">A</tspan>
     </text>
    </g>
   </g>
   <g id="text_36">
    <g id="patch_52">
     <path d="M 124.331839 147.808456 
L 128.185208 153.129776 
Q 128.976996 154.223198 130.070418 153.431409 
L 136.691315 148.636967 
Q 137.784737 147.845178 136.992949 146.751756 
L 133.139579 141.430437 
Q 132.347791 140.337015 131.254369 141.128803 
L 124.633472 145.923246 
Q 123.54005 146.715034 124.331839 147.808456 
z
" style="fill: #ffffff"/>
    </g>
    <!-- $\mathbf{C}$ -->
    <g style="fill: #2c3e50" transform="translate(126.984526 145.887545) rotate(-305.909723)">
     <text>
      <tspan style="font: 700 9px 'STIXGeneral'" x="0" y="-0.78125">C</tspan>
     </text>
    </g>
   </g>
   <g id="text_37">
    <g id="patch_53">
     <path d="M 151.165721 189.571337 
L 156.049672 193.107991 
Q 157.143094 193.89978 157.934882 192.806358 
L 162.729325 186.18546 
Q 163.521113 185.092039 162.427691 184.30025 
L 157.54374 180.763596 
Q 156.450319 179.971808 155.65853 181.06523 
L 150.864087 187.686127 
Q 150.072299 188.779549 151.165721 189.571337 
z
" style="fill: #ffffff"/>
    </g>
    <!-- $\mathbf{B}$ -->
    <g style="fill: #2c3e50" transform="translate(153.086632 186.91865) rotate(-324.090277)">
     <text>
      <tspan style="font: 700 9px 'STIXGeneral'" x="0" y="-0.921875">B</tspan>
     </text>
    </g>
   </g>
  </g>
  <g id="axes_2">
   <g id="text_38">
    <text style="fill: #d4a84b; font: 700 11px 'DejaVu Sans Mono'; text-anchor: middle" x="477.18646" y="229.535312" transform="rotate(-0 477.18646 229.535312)">.</text>
   </g>
   <g id="text_39">
    <text style="fill: #d4a84b; font: 700 11px 'DejaVu Sans Mono'; text-anchor: middle" x="484.83646" y="229.535312" transform="rotate(-0 484.83646 229.535312)">.</text>
   </g>
   <g id="text_40">
    <text style="fill: #d4a84b; font: 700 11px 'DejaVu Sans Mono'; text-anchor: middle" x="492.48646" y="229.535312" transform="rotate(-0 492.48646 229.535312)">.</text>
   </g>
   <g id="text_41">
    <text style="fill: #d4a84b; font: 700 11px 'DejaVu Sans Mono'; text-anchor: middle" x="500.13646" y="229.535312" transform="rotate(-0 500.13646 229.535312)">1</text>
   </g>
   <g id="text_42">
    <text style="fill: #d4a84b; font: 700 11px 'DejaVu Sans Mono'; text-anchor: middle" x="507.78646" y="229.535312" transform="rotate(-0 507.78646 229.535312)">1</text>
   </g>
   <g id="text_43">
    <text style="fill: #d4a84b; font: 700 11px 'DejaVu Sans Mono'; text-anchor: middle" x="515.43646" y="229.535312" transform="rotate(-0 515.43646 229.535312)">0</text>
   </g>
   <g id="text_44">
    <text style="fill: #d4a84b; font: 700 11px 'DejaVu Sans Mono'; text-anchor: middle" x="523.08646" y="229.535312" transform="rotate(-0 523.08646 229.535312)">1</text>
   </g>
   <g id="text_45">
    <text style="fill: #d4a84b; font: 700 11px 'DejaVu Sans Mono'; text-anchor: middle" x="530.73646" y="229.535312" transform="rotate(-0 530.73646 229.535312)">1</text>
   </g>
   <g id="text_46">
    <text style="fill: #d4a84b; font: 700 11px 'DejaVu Sans Mono'; text-anchor: middle" x="538.38646" y="229.535312" transform="rotate(-0 538.38646 229.535312)">0</text>
   </g>
   <g id="text_47">
    <text style="fill: #d4a84b; font: 700 11px 'DejaVu Sans Mono'; text-anchor: middle" x="546.03646" y="229.535312" transform="rotate(-0 546.03646 229.535312)">1</text>
   </g>
   <g id="text_48">
    <text style="fill: #d4a84b; font: 700 11px 'DejaVu Sans Mono'; text-anchor: middle" x="553.68646" y="229.535312" transform="rotate(-0 553.68646 229.535312)">1</text>
   </g>
   <g id="text_49">
    <text style="fill: #d4a84b; font: 700 11px 'DejaVu Sans Mono'; text-anchor: middle" x="561.33646" y="229.535312" transform="rotate(-0 561.33646 229.535312)">1</text>
   </g>
   <g id="text_50">
    <text style="fill: #d4a84b; font: 700 11px 'DejaVu Sans Mono'; text-anchor: middle" x="568.98646" y="229.535312" transform="rotate(-0 568.98646 229.535312)">1</text>
   </g>
   <g id="text_51">
    <text style="fill: #d4a84b; font: 700 11px 'DejaVu Sans Mono'; text-anchor: middle" x="576.63646" y="229.535312" transform="rotate(-0 576.63646 229.535312)">.</text>
   </g>
   <g id="text_52">
    <text style="fill: #d4a84b; font: 700 11px 'DejaVu Sans Mono'; text-anchor: middle" x="584.28646" y="229.535312" transform="rotate(-0 584.28646 229.535312)">.</text>
   </g>
   <g id="text_53">
    <text style="fill: #d4a84b; font: 700 11px 'DejaVu Sans Mono'; text-anchor: middle" x="591.93646" y="229.535312" transform="rotate(-0 591.93646 229.535312)">.</text>
   </g>
   <g id="text_54">
    <text style="fill: #8b5a9c; font: 700 11px 'DejaVu Sans Mono'; text-anchor: middle" x="477.18646" y="246.535312" transform="rotate(-0 477.18646 246.535312)">.</text>
   </g>
   <g id="text_55">
    <text style="fill: #8b5a9c; font: 700 11px 'DejaVu Sans Mono'; text-anchor: middle" x="484.83646" y="246.535312" transform="rotate(-0 484.83646 246.535312)">.</text>
   </g>
   <g id="text_56">
    <text style="fill: #8b5a9c; font: 700 11px 'DejaVu Sans Mono'; text-anchor: middle" x="492.48646" y="246.535312" transform="rotate(-0 492.48646 246.535312)">.</text>
   </g>
   <g id="text_57">
    <text style="fill: #8b5a9c; font: 700 11px 'DejaVu Sans Mono'; text-anchor: middle" x="500.13646" y="246.535312" transform="rotate(-0 500.13646 246.535312)">0</text>
   </g>
   <g id="text_58">
    <text style="fill: #8b5a9c; font: 700 11px 'DejaVu Sans Mono'; text-anchor: middle" x="507.78646" y="246.535312" transform="rotate(-0 507.78646 246.535312)">1</text>
   </g>
   <g id="text_59">
    <text style="fill: #8b5a9c; font: 700 11px 'DejaVu Sans Mono'; text-anchor: middle" x="515.43646" y="246.535312" transform="rotate(-0 515.43646 246.535312)">1</text>
   </g>
   <g id="text_60">
    <text style="fill: #8b5a9c; font: 700 11px 'DejaVu Sans Mono'; text-anchor: middle" x="523.08646" y="246.535312" transform="rotate(-0 523.08646 246.535312)">1</text>
   </g>
   <g id="text_61">
    <text style="fill: #8b5a9c; font: 700 11px 'DejaVu Sans Mono'; text-anchor: middle" x="530.73646" y="246.535312" transform="rotate(-0 530.73646 246.535312)">1</text>
   </g>
   <g id="text_62">
    <text style="fill: #8b5a9c; font: 700 11px 'DejaVu Sans Mono'; text-anchor: middle" x="538.38646" y="246.535312" transform="rotate(-0 538.38646 246.535312)">1</text>
   </g>
   <g id="text_63">
    <text style="fill: #8b5a9c; font: 700 11px 'DejaVu Sans Mono'; text-anchor: middle" x="546.03646" y="246.535312" transform="rotate(-0 546.03646 246.535312)">1</text>
   </g>
   <g id="text_64">
    <text style="fill: #8b5a9c; font: 700 11px 'DejaVu Sans Mono'; text-anchor: middle" x="553.68646" y="246.535312" transform="rotate(-0 553.68646 246.535312)">1</text>
   </g>
   <g id="text_65">
    <text style="fill: #8b5a9c; font: 700 11px 'DejaVu Sans Mono'; text-anchor: middle" x="561.33646" y="246.535312" transform="rotate(-0 561.33646 246.535312)">0</text>
   </g>
   <g id="text_66">
    <text style="fill: #8b5a9c; font: 700 11px 'DejaVu Sans Mono'; text-anchor: middle" x="568.98646" y="246.535312" transform="rotate(-0 568.98646 246.535312)">1</text>
   </g>
   <g id="text_67">
    <text style="fill: #8b5a9c; font: 700 11px 'DejaVu Sans Mono'; text-anchor: middle" x="576.63646" y="246.535312" transform="rotate(-0 576.63646 246.535312)">.</text>
   </g>
   <g id="text_68">
    <text style="fill: #8b5a9c; font: 700 11px 'DejaVu Sans Mono'; text-anchor: middle" x="584.28646" y="246.535312" transform="rotate(-0 584.28646 246.535312)">.</text>
   </g>
   <g id="text_69">
    <text style="fill: #8b5a9c; font: 700 11px 'DejaVu Sans Mono'; text-anchor: middle" x="591.93646" y="246.535312" transform="rotate(-0 591.93646 246.535312)">.</text>
   </g>
   <g id="patch_54">
    <path d="M 534.56146 252.301733 
Q 534.56146 262.201691 534.56146 270.983614 
" style="fill: none; stroke: #666666; stroke-linecap: round"/>
    <path d="M 536.56146 266.983614 
L 534.56146 270.983614 
L 532.56146 266.983614 
z
" style="fill: #666666; stroke: #666666; stroke-linecap: round"/>
   </g>
   <g id="text_70">
    <text style="fill: #2c3e50; font: 700 11px 'DejaVu Sans Mono'; text-anchor: middle" x="477.18646" y="290.735312" transform="rotate(-0 477.18646 290.735312)">.</text>
   </g>
   <g id="text_71">
    <text style="fill: #2c3e50; font: 700 11px 'DejaVu Sans Mono'; text-anchor: middle" x="484.83646" y="290.735312" transform="rotate(-0 484.83646 290.735312)">.</text>
   </g>
   <g id="text_72">
    <text style="fill: #2c3e50; font: 700 11px 'DejaVu Sans Mono'; text-anchor: middle" x="492.48646" y="290.735312" transform="rotate(-0 492.48646 290.735312)">.</text>
   </g>
   <g id="text_73">
    <text style="fill: #2c3e50; font: 700 11px 'DejaVu Sans Mono'; text-anchor: middle" x="500.13646" y="290.735312" transform="rotate(-0 500.13646 290.735312)">C</text>
   </g>
   <g id="text_74">
    <text style="fill: #2c3e50; font: 700 11px 'DejaVu Sans Mono'; text-anchor: middle" x="507.78646" y="290.735312" transform="rotate(-0 507.78646 290.735312)">D</text>
   </g>
   <g id="text_75">
    <text style="fill: #2c3e50; font: 700 11px 'DejaVu Sans Mono'; text-anchor: middle" x="515.43646" y="290.735312" transform="rotate(-0 515.43646 290.735312)">B</text>
   </g>
   <g id="text_76">
    <text style="fill: #2c3e50; font: 700 11px 'DejaVu Sans Mono'; text-anchor: middle" x="523.08646" y="290.735312" transform="rotate(-0 523.08646 290.735312)">D</text>
   </g>
   <g id="text_77">
    <text style="fill: #2c3e50; font: 700 11px 'DejaVu Sans Mono'; text-anchor: middle" x="530.73646" y="290.735312" transform="rotate(-0 530.73646 290.735312)">D</text>
   </g>
   <g id="text_78">
    <text style="fill: #2c3e50; font: 700 11px 'DejaVu Sans Mono'; text-anchor: middle" x="538.38646" y="290.735312" transform="rotate(-0 538.38646 290.735312)">B</text>
   </g>
   <g id="text_79">
    <text style="fill: #2c3e50; font: 700 11px 'DejaVu Sans Mono'; text-anchor: middle" x="546.03646" y="290.735312" transform="rotate(-0 546.03646 290.735312)">D</text>
   </g>
   <g id="text_80">
    <text style="fill: #2c3e50; font: 700 11px 'DejaVu Sans Mono'; text-anchor: middle" x="553.68646" y="290.735312" transform="rotate(-0 553.68646 290.735312)">D</text>
   </g>
   <g id="text_81">
    <text style="fill: #2c3e50; font: 700 11px 'DejaVu Sans Mono'; text-anchor: middle" x="561.33646" y="290.735312" transform="rotate(-0 561.33646 290.735312)">C</text>
   </g>
   <g id="text_82">
    <text style="fill: #2c3e50; font: 700 11px 'DejaVu Sans Mono'; text-anchor: middle" x="568.98646" y="290.735312" transform="rotate(-0 568.98646 290.735312)">D</text>
   </g>
   <g id="text_83">
    <text style="fill: #2c3e50; font: 700 11px 'DejaVu Sans Mono'; text-anchor: middle" x="576.63646" y="290.735312" transform="rotate(-0 576.63646 290.735312)">.</text>
   </g>
   <g id="text_84">
    <text style="fill: #2c3e50; font: 700 11px 'DejaVu Sans Mono'; text-anchor: middle" x="584.28646" y="290.735312" transform="rotate(-0 584.28646 290.735312)">.</text>
   </g>
   <g id="text_85">
    <text style="fill: #2c3e50; font: 700 11px 'DejaVu Sans Mono'; text-anchor: middle" x="591.93646" y="290.735312" transform="rotate(-0 591.93646 290.735312)">.</text>
   </g>
   <g id="text_86">
    <!-- $\otimes$ -->
    <g style="fill: #888888" transform="translate(526.91146 139.024219)">
     <text>
      <tspan style="font: 18px 'STIXGeneral'" x="0" y="-0.78125">⊗</tspan>
     </text>
    </g>
   </g>
   <g id="text_87">
    <text style="fill: #d4a84b; font: 700 9px 'CMU Serif', 'Computer Modern Roman', 'Times New Roman', 'DejaVu Serif', serif; text-anchor: middle" x="435.11146" y="209.274844" transform="rotate(-0 435.11146 209.274844)">0</text>
   </g>
   <g id="text_88">
    <text style="fill: #d4a84b; font: 700 9px 'CMU Serif', 'Computer Modern Roman', 'Times New Roman', 'DejaVu Serif', serif; text-anchor: middle" x="453.81146" y="209.274844" transform="rotate(-0 453.81146 209.274844)">1</text>
   </g>
   <g id="text_89">
    <text style="fill: #8b5a9c; font: 700 9px 'CMU Serif', 'Computer Modern Roman', 'Times New Roman', 'DejaVu Serif', serif; text-anchor: end" x="420.66146" y="227.667266" transform="rotate(-0 420.66146 227.667266)">0</text>
   </g>
   <g id="text_90">
    <text style="fill: #8b5a9c; font: 700 9px 'CMU Serif', 'Computer Modern Roman', 'Times New Roman', 'DejaVu Serif', serif; text-anchor: end" x="420.66146" y="246.367266" transform="rotate(-0 420.66146 246.367266)">1</text>
   </g>
   <g id="text_91">
    <text style="fill: #2c3e50; font: 700 10px 'CMU Serif', 'Computer Modern Roman', 'Times New Roman', 'DejaVu Serif', serif; text-anchor: middle" x="435.11146" y="227.891406" transform="rotate(-0 435.11146 227.891406)">A</text>
   </g>
   <g id="text_92">
    <text style="fill: #2c3e50; font: 700 10px 'CMU Serif', 'Computer Modern Roman', 'Times New Roman', 'DejaVu Serif', serif; text-anchor: middle" x="435.11146" y="246.591406" transform="rotate(-0 435.11146 246.591406)">B</text>
   </g>
   <g id="text_93">
    <text style="fill: #2c3e50; font: 700 10px 'CMU Serif', 'Computer Modern Roman', 'Times New Roman', 'DejaVu Serif', serif; text-anchor: middle" x="453.81146" y="227.891406" transform="rotate(-0 453.81146 227.891406)">C</text>
   </g>
   <g id="text_94">
    <text style="fill: #2c3e50; font: 700 10px 'CMU Serif', 'Computer Modern Roman', 'Times New Roman', 'DejaVu Serif', serif; text-anchor: middle" x="453.81146" y="246.591406" transform="rotate(-0 453.81146 246.591406)">D</text>
   </g>
   <g id="text_95">
    <text style="fill: #2c3e50; font: 700 13px 'CMU Serif', 'Computer Modern Roman', 'Times New Roman', 'DejaVu Serif', serif; text-anchor: middle" x="534.56146" y="29.919219" transform="rotate(-0 534.56146 29.919219)">Factored HMMs</text>
   </g>
   <g id="line2d_1">
    <path d="M 425.76146 253.7 
L 463.16146 253.7 
L 463.16146 216.3 
L 425.76146 216.3 
L 425.76146 253.7 
" clip-path="url(#p048723f2d2)" style="fill: none; stroke: #4a5568; stroke-width: 0.9; stroke-linecap: square"/>
   </g>
   <g id="line2d_2">
    <path d="M 444.46146 253.7 
L 444.46146 216.3 
" clip-path="url(#p048723f2d2)" style="fill: none; stroke: #4a5568; stroke-width: 0.9; stroke-linecap: square"/>
   </g>
   <g id="line2d_3">
    <path d="M 425.76146 235 
L 463.16146 235 
" clip-path="url(#p048723f2d2)" style="fill: none; stroke: #4a5568; stroke-width: 0.9; stroke-linecap: square"/>
   </g>
   <g id="patch_55">
    <path d="M 469.498406 89.720304 
C 437.042204 78.90157 470.263031 45.680744 481.081764 78.136945 
" clip-path="url(#p048723f2d2)" style="fill: none; stroke: #666666; stroke-width: 1.99; stroke-linejoin: miter"/>
   </g>
   <g id="patch_56">
    <path d="M 588.041156 78.136945 
C 598.85989 45.680744 632.080716 78.90157 599.624515 89.720304 
" clip-path="url(#p048723f2d2)" style="fill: none; stroke: #666666; stroke-width: 1.99; stroke-linejoin: miter"/>
   </g>
   <g id="patch_57">
    <path d="M 496.31146 85.825 
Q 534.56146 75.115 572.81146 85.825 
" clip-path="url(#p048723f2d2)" style="fill: none; stroke: #999999; stroke-width: 1.31; stroke-linejoin: miter"/>
   </g>
   <g id="patch_58">
    <path d="M 572.81146 98.575 
Q 534.56146 109.285 496.31146 98.575 
" clip-path="url(#p048723f2d2)" style="fill: none; stroke: #999999; stroke-width: 1.31; stroke-linejoin: miter"/>
   </g>
   <g id="patch_59">
    <path d="M 469.498406 174.720304 
C 437.042204 163.90157 470.263031 130.680744 481.081764 163.136945 
" clip-path="url(#p048723f2d2)" style="fill: none; stroke: #727272; stroke-width: 1.82; stroke-linejoin: miter"/>
   </g>
   <g id="patch_60">
    <path d="M 588.041156 163.136945 
C 598.85989 130.680744 632.080716 163.90157 599.624515 174.720304 
" clip-path="url(#p048723f2d2)" style="fill: none; stroke: #6c6c6c; stroke-width: 1.905; stroke-linejoin: miter"/>
   </g>
   <g id="patch_61">
    <path d="M 496.31146 170.825 
Q 534.56146 160.115 572.81146 170.825 
" clip-path="url(#p048723f2d2)" style="fill: none; stroke: #8c8c8c; stroke-width: 1.48; stroke-linejoin: miter"/>
   </g>
   <g id="patch_62">
    <path d="M 572.81146 183.575 
Q 534.56146 194.285 496.31146 183.575 
" clip-path="url(#p048723f2d2)" style="fill: none; stroke: #929292; stroke-width: 1.395; stroke-linejoin: miter"/>
   </g>
   <g id="patch_63">
    <path d="M 481.081764 78.136945 
L 482.694526 72.223486 
L 476.24348 74.373835 
z
" clip-path="url(#p048723f2d2)" style="fill: #666666; stroke: #666666; stroke-linejoin: miter"/>
   </g>
   <g id="patch_64">
    <path d="M 599.624515 89.720304 
L 605.537974 91.333066 
L 603.387626 84.882019 
z
" clip-path="url(#p048723f2d2)" style="fill: #666666; stroke: #666666; stroke-linejoin: miter"/>
   </g>
   <g id="patch_65">
    <path d="M 572.81146 85.825 
L 568.817086 81.17581 
L 566.983602 87.723965 
z
" clip-path="url(#p048723f2d2)" style="fill: #999999; stroke: #999999; stroke-linejoin: miter"/>
   </g>
   <g id="patch_66">
    <path d="M 496.31146 98.575 
L 500.305835 103.22419 
L 502.139319 96.676035 
z
" clip-path="url(#p048723f2d2)" style="fill: #999999; stroke: #999999; stroke-linejoin: miter"/>
   </g>
   <g id="patch_67">
    <path d="M 481.081764 163.136945 
L 482.694526 157.223486 
L 476.24348 159.373835 
z
" clip-path="url(#p048723f2d2)" style="fill: #727272; stroke: #727272; stroke-linejoin: miter"/>
   </g>
   <g id="patch_68">
    <path d="M 599.624515 174.720304 
L 605.537974 176.333066 
L 603.387626 169.882019 
z
" clip-path="url(#p048723f2d2)" style="fill: #6c6c6c; stroke: #6c6c6c; stroke-linejoin: miter"/>
   </g>
   <g id="patch_69">
    <path d="M 572.81146 170.825 
L 568.817086 166.17581 
L 566.983602 172.723965 
z
" clip-path="url(#p048723f2d2)" style="fill: #8c8c8c; stroke: #8c8c8c; stroke-linejoin: miter"/>
   </g>
   <g id="patch_70">
    <path d="M 496.31146 183.575 
L 500.305835 188.22419 
L 502.139319 181.676035 
z
" clip-path="url(#p048723f2d2)" style="fill: #929292; stroke: #929292; stroke-linejoin: miter"/>
   </g>
   <g id="patch_71">
    <path d="M 483.56146 104.95 
C 486.9428 104.95 490.186104 103.60658 492.577072 101.215611 
C 494.96804 98.824643 496.31146 95.58134 496.31146 92.2 
C 496.31146 88.81866 494.96804 85.575357 492.577072 83.184389 
C 490.186104 80.79342 486.9428 79.45 483.56146 79.45 
C 480.180121 79.45 476.936817 80.79342 474.545849 83.184389 
C 472.154881 85.575357 470.81146 88.81866 470.81146 92.2 
C 470.81146 95.58134 472.154881 98.824643 474.545849 101.215611 
C 476.936817 103.60658 480.180121 104.95 483.56146 104.95 
z
" clip-path="url(#p048723f2d2)" style="fill: #e2c16b"/>
   </g>
   <g id="patch_72">
    <path d="M 585.56146 104.95 
C 588.9428 104.95 592.186104 103.60658 594.577072 101.215611 
C 596.96804 98.824643 598.31146 95.58134 598.31146 92.2 
C 598.31146 88.81866 596.96804 85.575357 594.577072 83.184389 
C 592.186104 80.79342 588.9428 79.45 585.56146 79.45 
C 582.180121 79.45 578.936817 80.79342 576.545849 83.184389 
C 574.154881 85.575357 572.81146 88.81866 572.81146 92.2 
C 572.81146 95.58134 574.154881 98.824643 576.545849 101.215611 
C 578.936817 103.60658 582.180121 104.95 585.56146 104.95 
z
" clip-path="url(#p048723f2d2)" style="fill: #e2c16b"/>
   </g>
   <g id="patch_73">
    <path d="M 483.56146 189.95 
C 486.9428 189.95 490.186104 188.60658 492.577072 186.215611 
C 494.96804 183.824643 496.31146 180.58134 496.31146 177.2 
C 496.31146 173.81866 494.96804 170.575357 492.577072 168.184389 
C 490.186104 165.79342 486.9428 164.45 483.56146 164.45 
C 480.180121 164.45 476.936817 165.79342 474.545849 168.184389 
C 472.154881 170.575357 470.81146 173.81866 470.81146 177.2 
C 470.81146 180.58134 472.154881 183.824643 474.545849 186.215611 
C 476.936817 188.60658 480.180121 189.95 483.56146 189.95 
z
" clip-path="url(#p048723f2d2)" style="fill: #a67bb3"/>
   </g>
   <g id="patch_74">
    <path d="M 585.56146 189.95 
C 588.9428 189.95 592.186104 188.60658 594.577072 186.215611 
C 596.96804 183.824643 598.31146 180.58134 598.31146 177.2 
C 598.31146 173.81866 596.96804 170.575357 594.577072 168.184389 
C 592.186104 165.79342 588.9428 164.45 585.56146 164.45 
C 582.180121 164.45 578.936817 165.79342 576.545849 168.184389 
C 574.154881 170.575357 572.81146 173.81866 572.81146 177.2 
C 572.81146 180.58134 574.154881 183.824643 576.545849 186.215611 
C 578.936817 188.60658 582.180121 189.95 585.56146 189.95 
z
" clip-path="url(#p048723f2d2)" style="fill: #a67bb3"/>
   </g>
   <g id="text_96">
    <!-- $\mathbf{S}_{-}$ -->
    <g style="fill: #ffffff" transform="translate(477.51146 94.842578)">
     <text>
      <tspan style="font: 700 11px 'STIXGeneral'" x="0" y="-0.390625">S</tspan>
      <tspan style="font: 7.7px 'STIXGeneral'" x="6.285529" y="1.0625">−</tspan>
     </text>
    </g>
   </g>
   <g id="text_97">
    <!-- $\mathbf{S}_{+}$ -->
    <g style="fill: #ffffff" transform="translate(579.51146 94.842578)">
     <text>
      <tspan style="font: 700 11px 'STIXGeneral'" x="0" y="-0.390625">S</tspan>
      <tspan style="font: 7.7px 'STIXGeneral'" x="6.285529" y="1.0625">+</tspan>
     </text>
    </g>
   </g>
   <g id="text_98">
    <!-- $\mathbf{S}_{-}$ -->
    <g style="fill: #ffffff" transform="translate(477.51146 179.842578)">
     <text>
      <tspan style="font: 700 11px 'STIXGeneral'" x="0" y="-0.390625">S</tspan>
      <tspan style="font: 7.7px 'STIXGeneral'" x="6.285529" y="1.0625">−</tspan>
     </text>
    </g>
   </g>
   <g id="text_99">
    <!-- $\mathbf{S}_{+}$ -->
    <g style="fill: #ffffff" transform="translate(579.51146 179.842578)">
     <text>
      <tspan style="font: 700 11px 'STIXGeneral'" x="0" y="-0.390625">S</tspan>
      <tspan style="font: 7.7px 'STIXGeneral'" x="6.285529" y="1.0625">+</tspan>
     </text>
    </g>
   </g>
   <g id="text_100">
    <g id="patch_75">
     <path d="M 446.552137 64.540676 
L 452.052137 64.540676 
Q 453.702137 64.540676 453.702137 62.890676 
L 453.702137 52.990676 
Q 453.702137 51.340676 452.052137 51.340676 
L 446.552137 51.340676 
Q 444.902137 51.340676 444.902137 52.990676 
L 444.902137 62.890676 
Q 444.902137 64.540676 446.552137 64.540676 
z
" style="fill: #ffffff"/>
    </g>
    <text style="fill: #d4a84b; font: 11px 'STIXGeneral'; text-anchor: middle" x="449.302137" y="60.503333" transform="rotate(-0 449.302137 60.503333)">𝟏</text>
   </g>
   <g id="text_101">
    <g id="patch_76">
     <path d="M 617.070784 64.540676 
L 622.570784 64.540676 
Q 624.220784 64.540676 624.220784 62.890676 
L 624.220784 52.990676 
Q 624.220784 51.340676 622.570784 51.340676 
L 617.070784 51.340676 
Q 615.420784 51.340676 615.420784 52.990676 
L 615.420784 62.890676 
Q 615.420784 64.540676 617.070784 64.540676 
z
" style="fill: #ffffff"/>
    </g>
    <text style="fill: #d4a84b; font: 11px 'STIXGeneral'; text-anchor: middle" x="619.820784" y="60.503333" transform="rotate(-0 619.820784 60.503333)">𝟏</text>
   </g>
   <g id="text_102">
    <g id="patch_77">
     <path d="M 531.81146 87.07 
L 537.31146 87.07 
Q 538.96146 87.07 538.96146 85.42 
L 538.96146 75.52 
Q 538.96146 73.87 537.31146 73.87 
L 531.81146 73.87 
Q 530.16146 73.87 530.16146 75.52 
L 530.16146 85.42 
Q 530.16146 87.07 531.81146 87.07 
z
" style="fill: #ffffff"/>
    </g>
    <text style="fill: #d4a84b; font: 11px 'STIXGeneral'; text-anchor: middle" x="534.56146" y="83.032656" transform="rotate(-0 534.56146 83.032656)">𝟏</text>
   </g>
   <g id="text_103">
    <g id="patch_78">
     <path d="M 531.81146 110.53 
L 537.31146 110.53 
Q 538.96146 110.53 538.96146 108.88 
L 538.96146 98.98 
Q 538.96146 97.33 537.31146 97.33 
L 531.81146 97.33 
Q 530.16146 97.33 530.16146 98.98 
L 530.16146 108.88 
Q 530.16146 110.53 531.81146 110.53 
z
" style="fill: #ffffff"/>
    </g>
    <text style="fill: #d4a84b; font: 11px 'STIXGeneral'; text-anchor: middle" x="534.56146" y="106.492656" transform="rotate(-0 534.56146 106.492656)">𝟎</text>
   </g>
   <g id="text_104">
    <g id="patch_79">
     <path d="M 446.552137 149.540676 
L 452.052137 149.540676 
Q 453.702137 149.540676 453.702137 147.890676 
L 453.702137 137.990676 
Q 453.702137 136.340676 452.052137 136.340676 
L 446.552137 136.340676 
Q 444.902137 136.340676 444.902137 137.990676 
L 444.902137 147.890676 
Q 444.902137 149.540676 446.552137 149.540676 
z
" style="fill: #ffffff"/>
    </g>
    <text style="fill: #8b5a9c; font: 11px 'STIXGeneral'; text-anchor: middle" x="449.302137" y="145.503333" transform="rotate(-0 449.302137 145.503333)">𝟏</text>
   </g>
   <g id="text_105">
    <g id="patch_80">
     <path d="M 617.070784 149.540676 
L 622.570784 149.540676 
Q 624.220784 149.540676 624.220784 147.890676 
L 624.220784 137.990676 
Q 624.220784 136.340676 622.570784 136.340676 
L 617.070784 136.340676 
Q 615.420784 136.340676 615.420784 137.990676 
L 615.420784 147.890676 
Q 615.420784 149.540676 617.070784 149.540676 
z
" style="fill: #ffffff"/>
    </g>
    <text style="fill: #8b5a9c; font: 11px 'STIXGeneral'; text-anchor: middle" x="619.820784" y="145.503333" transform="rotate(-0 619.820784 145.503333)">𝟏</text>
   </g>
   <g id="text_106">
    <g id="patch_81">
     <path d="M 531.81146 172.07 
L 537.31146 172.07 
Q 538.96146 172.07 538.96146 170.42 
L 538.96146 160.52 
Q 538.96146 158.87 537.31146 158.87 
L 531.81146 158.87 
Q 530.16146 158.87 530.16146 160.52 
L 530.16146 170.42 
Q 530.16146 172.07 531.81146 172.07 
z
" style="fill: #ffffff"/>
    </g>
    <text style="fill: #8b5a9c; font: 11px 'STIXGeneral'; text-anchor: middle" x="534.56146" y="168.032656" transform="rotate(-0 534.56146 168.032656)">𝟏</text>
   </g>
   <g id="text_107">
    <g id="patch_82">
     <path d="M 531.81146 195.53 
L 537.31146 195.53 
Q 538.96146 195.53 538.96146 193.88 
L 538.96146 183.98 
Q 538.96146 182.33 537.31146 182.33 
L 531.81146 182.33 
Q 530.16146 182.33 530.16146 183.98 
L 530.16146 193.88 
Q 530.16146 195.53 531.81146 195.53 
z
" style="fill: #ffffff"/>
    </g>
    <text style="fill: #8b5a9c; font: 11px 'STIXGeneral'; text-anchor: middle" x="534.56146" y="191.492656" transform="rotate(-0 534.56146 191.492656)">𝟎</text>
   </g>
  </g>
 </g>
 <defs>
  <clipPath id="p51ef84a662">
   <rect x="7.2" y="7.2" width="286.875" height="306"/>
  </clipPath>
  <clipPath id="p048723f2d2">
   <rect x="424.06146" y="7.2" width="221" height="306"/>
  </clipPath>
 </defs>
</svg>
